<svg width="73" height="54" viewBox="0 0 73 54" fill="none" xmlns="http://www.w3.org/2000/svg">
<path d="M72.6601 1.43995C72.6601 1.38995 72.6601 1.32995 72.6401 1.27995C72.6401 1.24995 72.6201 1.20995 72.6101 1.17995C72.6001 1.12995 72.5801 1.07995 72.5601 1.02995C72.5501 0.999949 72.5301 0.969949 72.5201 0.939949C72.5001 0.889949 72.4701 0.84995 72.4501 0.79995C72.4301 0.76995 72.4001 0.739949 72.3801 0.709949C72.3601 0.679949 72.3401 0.649949 72.3101 0.619949C72.3101 0.619949 72.3001 0.609949 72.2901 0.599949C72.2601 0.569949 72.2301 0.539951 72.2001 0.519951C72.1701 0.489951 72.1301 0.459951 72.1001 0.429951C72.0701 0.409951 72.0401 0.389951 72.0101 0.379951C71.9701 0.349951 71.9201 0.329952 71.8801 0.309952C71.8501 0.299952 71.8201 0.289949 71.7901 0.279949C71.7401 0.259949 71.6901 0.23995 71.6401 0.22995C71.6101 0.22995 71.5801 0.229952 71.5401 0.219952C71.4901 0.219952 71.4501 0.199951 71.4001 0.199951C71.4001 0.199951 71.3901 0.199951 71.3801 0.199951C71.3701 0.199951 71.3601 0.199951 71.3501 0.199951H2.23014C2.23014 0.199951 2.21014 0.199951 2.20014 0.199951C2.20014 0.199951 2.19014 0.199951 2.18014 0.199951C2.13014 0.199951 2.09014 0.209952 2.04014 0.219952C2.01014 0.219952 1.98014 0.21995 1.95014 0.22995C1.89014 0.23995 1.84014 0.259949 1.78014 0.279949C1.75014 0.279949 1.73014 0.299952 1.70014 0.309952C1.64014 0.329952 1.59014 0.359952 1.54014 0.399952C1.52014 0.409952 1.49014 0.419949 1.47014 0.439949C1.43014 0.469949 1.39014 0.509951 1.34014 0.539951C1.31014 0.559951 1.29014 0.579951 1.27014 0.609951C1.27014 0.609951 1.25014 0.619951 1.25014 0.629951C1.25014 0.629951 1.25014 0.64995 1.23014 0.65995C1.13014 0.77995 1.04014 0.909952 0.980137 1.05995C0.980137 1.07995 0.970136 1.08995 0.960136 1.10995C0.920136 1.23995 0.890137 1.37995 0.890137 1.52995V52.05C0.890137 52.78 1.49014 53.3799 2.22014 53.3799H71.3201C72.0501 53.3799 72.6501 52.78 72.6501 52.05V1.52995C72.6501 1.52995 72.6501 1.46995 72.6501 1.43995H72.6601ZM3.56014 4.56995L35.8801 34.43C36.1301 34.66 36.4501 34.7799 36.7801 34.7799C37.1101 34.7799 37.4401 34.65 37.6801 34.43L70.0001 4.56995V50.72H3.56014V4.56995ZM5.64014 2.85995H67.9401L36.7901 31.6399L5.64014 2.85995Z" fill="white"/>
</svg>
