<svg width="56" height="80" viewBox="0 0 56 80" fill="none" xmlns="http://www.w3.org/2000/svg">
<path d="M42.9903 14.7601C39.0103 8.20006 32.3903 4.22006 24.8403 3.84006C24.0003 3.80006 23.1603 3.80006 22.3203 3.84006C14.7703 4.22006 8.15029 8.20006 4.17029 14.7601C0.100285 21.4501 -0.389722 29.6801 2.85028 36.7901L22.4703 78.7201C22.6703 79.1501 23.1003 79.4301 23.5803 79.4301C24.0603 79.4301 24.4903 79.1601 24.6903 78.7201L44.3103 36.7801C47.5503 29.6901 47.0503 21.4601 42.9903 14.7601ZM42.0903 35.7501L23.5803 75.3101L5.07031 35.7601C2.17031 29.4101 2.61031 22.0301 6.26031 16.0301C9.82031 10.1801 15.7103 6.63006 22.4403 6.29006C22.8203 6.27006 23.1903 6.26006 23.5703 6.26006C23.9503 6.26006 24.3303 6.26006 24.7103 6.29006C31.4403 6.63006 37.3403 10.1801 40.8903 16.0401C44.5303 22.0401 44.9803 29.4101 42.0803 35.7601L42.0903 35.7501Z" fill="white"/>
<path d="M23.5804 14.15C16.6204 14.15 10.9604 19.81 10.9604 26.77C10.9604 33.73 16.6204 39.39 23.5804 39.39C30.5404 39.39 36.2004 33.73 36.2004 26.77C36.2004 19.81 30.5404 14.15 23.5804 14.15ZM23.5804 36.95C17.9704 36.95 13.4104 32.39 13.4104 26.78C13.4104 21.17 17.9704 16.61 23.5804 16.61C29.1904 16.61 33.7504 21.17 33.7504 26.78C33.7504 32.39 29.1904 36.95 23.5804 36.95Z" fill="white"/>
<path d="M51.6403 11.09C47.6603 4.53001 41.0402 0.550015 33.4902 0.170015C32.6602 0.130015 31.8102 0.130015 30.9702 0.170015C30.6202 0.190015 30.2802 0.210015 29.9302 0.250015C29.2602 0.310015 28.7603 0.910015 28.8303 1.59001C28.8903 2.26001 29.4902 2.75002 30.1702 2.69002C30.4802 2.66002 30.7902 2.64002 31.1002 2.62002C31.8502 2.58002 32.6203 2.58002 33.3703 2.62002C40.1003 2.96002 46.0002 6.51001 49.5502 12.37C53.1902 18.37 53.6402 25.74 50.7402 32.09L31.1203 74.02C30.8303 74.63 31.1003 75.36 31.7103 75.65C31.8803 75.73 32.0502 75.77 32.2302 75.77C32.6902 75.77 33.1303 75.51 33.3403 75.06L52.9603 33.12C56.2003 26.03 55.7003 17.8 51.6403 11.1V11.09Z" fill="white"/>
</svg>
