<svg width="80" height="80" viewBox="0 0 80 80" fill="none" xmlns="http://www.w3.org/2000/svg">
<path d="M54.4998 46.7799C53.9198 46.2099 52.9799 46.2099 52.4099 46.7799L46.6798 52.5099L28.0699 33.8999L34.0298 27.9399C34.3098 27.6599 34.4698 27.2899 34.4698 26.8899C34.4698 26.4899 34.3199 26.1199 34.0399 25.8399L20.2998 12.0999C20.0198 11.8199 19.6498 11.6699 19.2498 11.6699C18.8498 11.6699 18.4798 11.8199 18.1998 12.0999L1.26984 29.0199C0.989836 29.2999 0.839844 29.6699 0.839844 30.0699C0.839844 30.4699 0.989836 30.8399 1.26984 31.1199L41.7298 71.5799C42.3098 72.1599 43.2498 72.1599 43.8298 71.5799C44.1098 71.2999 44.2698 70.9299 44.2698 70.5299C44.2698 70.1299 44.1198 69.7599 43.8398 69.4799L4.42984 30.0699L14.9099 19.5899L26.5498 31.2299L24.9298 32.8499C24.6498 33.1299 24.4998 33.5099 24.4998 33.8999C24.4998 34.2899 24.6498 34.6699 24.9298 34.9499L45.6398 55.6599C46.2198 56.2399 47.1598 56.2399 47.7398 55.6599L49.4598 53.9399L61.3898 65.8699L50.3698 76.8899C50.0898 77.1699 49.9398 77.5399 49.9398 77.9399C49.9398 78.3399 50.0898 78.7099 50.3698 78.9899C50.6598 79.2799 51.0398 79.4199 51.4198 79.4199C51.7998 79.4199 52.1798 79.2799 52.4698 78.9899L68.6299 62.8299C68.9099 62.5499 69.0698 62.1699 69.0598 61.7799C69.0598 61.3799 68.8998 61.0099 68.6198 60.7299L54.5099 46.7799H54.4998ZM65.4598 61.7899L63.4798 63.7799L51.5498 51.8499L53.4598 49.9399L65.4598 61.7999V61.7899ZM16.9998 17.4899L19.2398 15.2499L30.8799 26.8899L28.6398 29.1299L16.9998 17.4899Z" fill="white"/>
<path d="M66.9196 35.81C66.9796 35.81 67.0396 35.81 67.0996 35.8C67.4996 35.75 67.8696 35.53 68.1196 35.21C68.3596 34.89 68.4596 34.49 68.3896 34.1C67.4796 28.65 64.9296 23.69 60.9896 19.75C56.9996 15.76 51.9696 13.19 46.4296 12.32C46.0396 12.26 45.6396 12.36 45.3196 12.6C44.9996 12.85 44.7796 13.22 44.7396 13.62C44.6496 14.41 45.1996 15.12 45.9996 15.25C50.8996 16.03 55.3496 18.31 58.8896 21.84C62.3796 25.33 64.6396 29.72 65.4496 34.55C65.5696 35.28 66.1996 35.81 66.9096 35.81H66.9196Z" fill="white"/>
<path d="M47.59 22.05C47.24 21.86 46.83 21.83 46.45 21.96C46.06 22.09 45.7401 22.37 45.5701 22.74C45.2301 23.46 45.52 24.31 46.24 24.69C48.31 25.78 50.21 27.19 51.88 28.86C53.52 30.5 54.9 32.35 55.98 34.37C56.25 34.88 56.77 35.17 57.3 35.17C57.51 35.17 57.73 35.12 57.93 35.02C58.3 34.84 58.58 34.52 58.71 34.13C58.83 33.75 58.8 33.34 58.61 32.99C57.39 30.71 55.83 28.61 53.98 26.75C52.09 24.86 49.94 23.27 47.59 22.04V22.05Z" fill="white"/>
<path d="M68.7597 11.22C61.1697 3.62998 50.6697 -0.410021 39.9397 0.199979C39.5397 0.219979 39.1797 0.399977 38.9097 0.709977C38.6497 1.00998 38.5097 1.41998 38.5497 1.81998C38.6197 2.61998 39.2897 3.22998 40.1197 3.16998C49.9997 2.63998 59.6797 6.33998 66.6697 13.33C73.7697 20.43 77.4597 30.24 76.8097 40.25C76.7597 41.06 77.3397 41.76 78.1397 41.83C78.1897 41.83 78.2297 41.83 78.2797 41.83C78.6297 41.83 78.9797 41.7 79.2497 41.47C79.5597 41.21 79.7397 40.85 79.7697 40.45C80.4797 29.58 76.4697 18.92 68.7697 11.22H68.7597Z" fill="white"/>
</svg>
